<?xml version="1.0" encoding="UTF-8"?>
<svg width="35px" height="35px" viewBox="0 0 35 35" version="1.1" xmlns="http://www.w3.org/2000/svg" xmlns:xlink="http://www.w3.org/1999/xlink">
    <!-- Generator: Sketch 52.5 (67469) - http://www.bohemiancoding.com/sketch -->
    <title>contract</title>
    <desc>Created with Sketch.</desc>
    <g id="Page-1" stroke="none" stroke-width="1" fill="none" fill-rule="evenodd">
        <g id="Home" transform="translate(-1146.000000, -912.000000)" fill="#FFFFFF" fill-rule="nonzero">
            <g id="Group-4" transform="translate(1121.000000, 887.000000)">
                <g id="Group">
                    <g id="contract" transform="translate(25.000000, 25.000000)">
                        <path d="M34.0982164,11.014541 C32.8987665,9.81510742 30.947037,9.81517578 29.747177,11.0148145 C29.378147,11.3841602 27.0219749,13.7420801 26.6620374,14.102334 L26.6620374,5.97638672 C26.6620374,5.15470703 26.3420246,4.38224609 25.7609289,3.80125977 L22.8605778,0.900976562 C22.2795505,0.319921875 21.5069667,0 20.685229,0 L3.07638893,0 C1.38006808,0 0,1.3799707 0,3.07617187 L0,31.9238281 C0,33.6200293 1.38006808,35 3.07638893,35 L23.5856485,35 C25.2819694,35 26.6620374,33.6200293 26.6620374,31.9238281 L26.6620374,22.8068066 L34.098148,15.3649316 C35.3004692,14.1627637 35.3007427,12.2168457 34.0982164,11.014541 Z M20.5093279,2.05078125 C20.7030721,2.05078125 21.076409,2.0172168 21.4103681,2.35108398 L24.3107875,5.25136719 C24.6362011,5.57682617 24.6111798,5.93345703 24.6111798,6.15234375 L20.5093279,6.15234375 L20.5093279,2.05078125 Z M24.6111115,31.9238281 C24.6111115,32.4892285 24.1511571,32.9492188 23.5856485,32.9492188 L3.07638893,32.9492188 C2.51094865,32.9492188 2.05092596,32.4892285 2.05092596,31.9238281 L2.05092596,3.07617188 C2.05092596,2.51077148 2.51094865,2.05078125 3.07638893,2.05078125 L18.4583336,2.05078125 L18.4583336,7.17773438 C18.4583336,7.74402344 18.9174676,8.203125 19.4837966,8.203125 L24.6111115,8.203125 L24.6111115,16.1548926 C24.6111115,16.1548926 21.5857222,19.182666 21.5855855,19.1827344 L20.1360594,20.6322266 C20.0235319,20.7447461 19.9386236,20.8820117 19.8883075,21.0330176 L18.4380294,25.3834082 C18.315179,25.7518652 18.4110939,26.158125 18.6857813,26.4327246 C18.9608105,26.7077344 19.3672356,26.8031641 19.7351717,26.680459 L24.0858693,25.2303516 C24.2368859,25.1800391 24.3741612,25.0952051 24.4866886,24.9826172 L24.6111115,24.8582031 L24.6111115,31.9238281 Z M22.3113398,21.3573145 L23.7615496,22.8074219 L23.2075945,23.3613379 L21.032314,24.0863574 L21.7573847,21.9111621 L22.3113398,21.3573145 Z M25.2114859,21.3569727 L23.7612761,19.9068652 C24.5335181,19.1340625 27.9632816,15.7016016 28.6906767,14.9736426 L30.1408864,16.42375 L25.2114859,21.3569727 Z M32.6476648,13.9150977 L31.5905492,14.9730273 L30.1403395,13.5229199 L31.1977969,12.4646484 C31.5978642,12.0648145 32.2482812,12.0648828 32.648075,12.4646484 C33.0478005,12.8645508 33.0499198,13.5128027 32.6476648,13.9150977 Z" id="Shape"></path>
                        <path d="M19.4226974,10.3157895 L5.07730263,10.3157895 C4.51141096,10.3157895 4.05263158,10.769414 4.05263158,11.3289474 C4.05263158,11.8884807 4.51141096,12.3421053 5.07730263,12.3421053 L19.4226974,12.3421053 C19.988589,12.3421053 20.4473684,11.8884807 20.4473684,11.3289474 C20.4473684,10.769414 19.988589,10.3157895 19.4226974,10.3157895 Z" id="Shape"></path>
                        <path d="M15.3662281,14.3684211 L5.08114035,14.3684211 C4.51312924,14.3684211 4.05263158,14.8220456 4.05263158,15.3815789 C4.05263158,15.9411123 4.51312924,16.3947368 5.08114035,16.3947368 L15.3662281,16.3947368 C15.9342392,16.3947368 16.3947368,15.9411123 16.3947368,15.3815789 C16.3947368,14.8220456 15.9342392,14.3684211 15.3662281,14.3684211 Z" id="Shape"></path>
                        <path d="M15.3662281,18.4210526 L5.08114035,18.4210526 C4.51312924,18.4210526 4.05263158,18.8746772 4.05263158,19.4342105 C4.05263158,19.9937439 4.51312924,20.4473684 5.08114035,20.4473684 L15.3662281,20.4473684 C15.9342392,20.4473684 16.3947368,19.9937439 16.3947368,19.4342105 C16.3947368,18.8746772 15.9342392,18.4210526 15.3662281,18.4210526 Z" id="Shape"></path>
                        <path d="M15.3662281,22.4736842 L5.08114035,22.4736842 C4.51312924,22.4736842 4.05263158,22.9273088 4.05263158,23.4868421 C4.05263158,24.0463754 4.51312924,24.5 5.08114035,24.5 L15.3662281,24.5 C15.9342392,24.5 16.3947368,24.0463754 16.3947368,23.4868421 C16.3947368,22.9273088 15.9342392,22.4736842 15.3662281,22.4736842 Z" id="Shape"></path>
                        <path d="M19.5953947,28.9210526 L13.3782895,28.9210526 C12.8060395,28.9210526 12.3421053,29.3746772 12.3421053,29.9342105 C12.3421053,30.4937439 12.8060395,30.9473684 13.3782895,30.9473684 L19.5953947,30.9473684 C20.1676447,30.9473684 20.6315789,30.4937439 20.6315789,29.9342105 C20.6315789,29.3746772 20.1676447,28.9210526 19.5953947,28.9210526 Z" id="Shape"></path>
                    </g>
                </g>
            </g>
        </g>
    </g>
</svg>