<?xml version="1.0" encoding="UTF-8"?>
<svg width="45px" height="45px" viewBox="0 0 45 45" version="1.1" xmlns="http://www.w3.org/2000/svg" xmlns:xlink="http://www.w3.org/1999/xlink">
    <!-- Generator: Sketch 52.5 (67469) - http://www.bohemiancoding.com/sketch -->
    <title>open-book</title>
    <desc>Created with Sketch.</desc>
    <g id="Page-1" stroke="none" stroke-width="1" fill="none" fill-rule="evenodd">
        <g id="Home" transform="translate(-822.000000, -905.000000)" fill="#FFFFFF" fill-rule="nonzero">
            <g id="Group-6" transform="translate(804.000000, 887.000000)">
                <g id="Group-3">
                    <g id="open-book" transform="translate(18.000000, 18.000000)">
                        <path d="M25.5313158,21.2992105 C25.6637719,21.5582456 25.9272807,21.7078947 26.1997368,21.7078947 C26.3135088,21.7078947 26.4302632,21.6816667 26.5388596,21.6263158 C26.5829825,21.6038596 30.9889474,19.3657018 33.1619298,18.6792982 C33.5557018,18.5542982 33.7742105,18.1335965 33.6492105,17.7399123 C33.5249123,17.3461404 33.1072807,17.1268421 32.7098246,17.2511404 C30.4207895,17.975 26.0448246,20.1981579 25.8592105,20.2924561 C25.4908772,20.4795614 25.3442105,20.9302632 25.5313158,21.2992105 Z" id="Shape"></path>
                        <path d="M26.1997368,12.7255263 C26.3135088,12.7255263 26.4302632,12.6992982 26.5388596,12.6439474 C26.5829825,12.6214912 30.9889474,10.3833333 33.1619298,9.69692982 C33.5557018,9.57192982 33.7742105,9.15122807 33.6492105,8.75754386 C33.5249123,8.36377193 33.1072807,8.14447368 32.7098246,8.26877193 C30.4207895,8.99263158 26.0448246,11.2157895 25.8592105,11.3100877 C25.4909649,11.497193 25.3442105,11.947807 25.5313158,12.3168421 C25.6637719,12.5757895 25.9272807,12.7255263 26.1997368,12.7255263 Z" id="Shape"></path>
                        <path d="M44.1639474,11.2284211 C43.75,11.2284211 43.4154386,11.5637719 43.4154386,11.9769298 L43.4154386,41.1699123 C43.4154386,42.4079825 42.4078947,43.4155263 41.1698246,43.4155263 L23.2049123,43.4155263 L23.2049123,41.6931579 C24.2963158,41.3114035 27.1392105,40.4214035 29.9417544,40.4214035 C36.4622807,40.4214035 40.8899123,41.8653509 40.9340351,41.8802632 C41.1592982,41.9550877 41.4108772,41.9177193 41.6077193,41.7769298 C41.8030702,41.6362281 41.9183333,41.4101754 41.9183333,41.1698246 L41.9183333,8.23429825 C41.9183333,7.88324561 41.6750877,7.57929825 41.332193,7.50368421 C41.332193,7.50368421 40.7453509,7.3727193 39.7422807,7.18850877 C39.3372807,7.11368421 38.9458772,7.38315789 38.8709649,7.78885965 C38.7961404,8.19605263 39.0648246,8.58605263 39.4713158,8.66087719 C39.8538596,8.73122807 40.1742105,8.79333333 40.4212281,8.84280702 L40.4212281,40.1750877 C38.725,39.7304386 34.9584211,38.9242982 29.9416667,38.9242982 C26.6802632,38.9242982 23.4765789,39.9954386 22.4854386,40.3585088 C21.604386,39.9692982 18.9411404,38.9242982 15.719386,38.9242982 C10.5634211,38.9242982 6.31622807,39.7746491 4.49131579,40.2065789 L4.49131579,8.81359649 C5.98614035,8.44605263 10.4010526,7.48570175 15.719386,7.48570175 C18.4485965,7.48570175 20.7892105,8.33526316 21.7077193,8.71929825 L21.7077193,38.1757895 C21.7077193,38.4452632 21.8528947,38.6945614 22.087193,38.8270175 C22.3214912,38.9602632 22.6104386,38.9564912 22.8417544,38.8172807 C22.9158772,38.7731579 30.3323684,34.3432456 36.915,32.1492982 C37.2211404,32.0467544 37.4270175,31.7615789 37.4270175,31.4389474 L37.4270175,0.748859649 C37.4270175,0.503333333 37.3064912,0.273508772 37.104386,0.133596491 C36.9037719,-0.00640350877 36.6463158,-0.0385964912 36.415,0.0475438596 C30.4259649,2.29385965 24.3658772,6.065 24.3051754,6.10245614 C23.9548246,6.32175439 23.847807,6.78359649 24.0671053,7.13394737 C24.2857018,7.48429825 24.7475439,7.59131579 25.0985965,7.37201754 C25.1539474,7.33684211 30.4259649,4.05675439 35.9299123,1.84333333 L35.9299123,30.9030702 C30.8203509,32.6785965 25.4855263,35.5777193 23.2047368,36.875614 L23.2047368,8.23429825 C23.2047368,7.95061404 23.0445614,7.69157895 22.7907895,7.56438596 C22.6620175,7.50078947 19.5945614,5.98868421 15.719386,5.98868421 C8.95561404,5.98868421 3.75552632,7.45210526 3.53692982,7.51491228 C3.21578947,7.60622807 2.99421053,7.9004386 2.99421053,8.23429825 L2.99421053,41.17 C2.99421053,41.4042982 3.105,41.6258772 3.29140351,41.7673684 C3.42315789,41.8669298 3.58184211,41.9185965 3.74280702,41.9185965 C3.81166667,41.9185965 3.88052632,41.9088596 3.94789474,41.889386 C3.9995614,41.8751754 9.17570175,40.4214912 15.719386,40.4214912 C18.4560526,40.4214912 20.7944737,41.2733333 21.7077193,41.6557895 L21.7077193,43.415614 L3.74280702,43.415614 C2.50473684,43.415614 1.49719298,42.4080702 1.49719298,41.17 L1.49719298,11.9770175 C1.49719298,11.5638596 1.16184211,11.2285088 0.748684211,11.2285088 C0.335526316,11.2285088 0.000175438596,11.5638596 0.000175438596,11.9770175 L0.000175438596,41.17 C0.000175438596,43.2336842 1.67912281,44.9127193 3.74289474,44.9127193 L41.1698246,44.9127193 C43.2335088,44.9127193 44.9125439,43.2337719 44.9125439,41.17 L44.9125439,11.9770175 C44.9124561,11.5637719 44.5778947,11.2284211 44.1639474,11.2284211 Z" id="Shape"></path>
                        <path d="M25.5313158,16.8079825 C25.6637719,17.0670175 25.9272807,17.2166667 26.1997368,17.2166667 C26.3135088,17.2166667 26.4302632,17.1904386 26.5388596,17.1350877 C26.5829825,17.1126316 30.9889474,14.8744737 33.1619298,14.1880702 C33.5557018,14.0630702 33.7742105,13.6423684 33.6492105,13.2486842 C33.5249123,12.8549123 33.1072807,12.635614 32.7098246,12.7599123 C30.4207895,13.4837719 26.0448246,15.7069298 25.8592105,15.8012281 C25.4908772,15.9883333 25.3442105,16.4390351 25.5313158,16.8079825 Z" id="Shape"></path>
                        <path d="M25.5313158,25.7904386 C25.6637719,26.0494737 25.9272807,26.1991228 26.1997368,26.1991228 C26.3135088,26.1991228 26.4302632,26.1728947 26.5388596,26.1175439 C26.5829825,26.0950877 30.9889474,23.8569298 33.1619298,23.1705263 C33.5557018,23.0455263 33.7742105,22.6248246 33.6492105,22.2311404 C33.5249123,21.8373684 33.1072807,21.6180702 32.7098246,21.7423684 C30.4207895,22.4662281 26.0448246,24.689386 25.8592105,24.7836842 C25.4908772,24.9707895 25.3442105,25.4214912 25.5313158,25.7904386 Z" id="Shape"></path>
                        <path d="M18.1357895,13.8917544 C13.5135965,12.8071053 8.26105263,14.1889474 8.04026316,14.2480702 C7.64131579,14.3550877 7.40403509,14.7652632 7.51105263,15.165 C7.60087719,15.4995614 7.90324561,15.7196491 8.23342105,15.7196491 C8.29780702,15.7196491 8.36289474,15.7114035 8.42807018,15.6942105 C8.47824561,15.68 13.5353509,14.3498246 17.7945614,15.3491228 C18.195,15.4427193 18.6,15.1934211 18.6942982,14.7907018 C18.7885088,14.3887719 18.5385088,13.9860526 18.1357895,13.8917544 Z" id="Shape"></path>
                        <path d="M18.1357895,18.3829825 C13.5135965,17.2991228 8.26105263,18.6801754 8.04026316,18.7392982 C7.64131579,18.8463158 7.40403509,19.2565789 7.51105263,19.6562281 C7.60087719,19.9907895 7.90324561,20.2108772 8.23342105,20.2108772 C8.29780702,20.2108772 8.36289474,20.2026316 8.42807018,20.1854386 C8.47824561,20.1712281 13.5353509,18.8410526 17.7945614,19.8403509 C18.195,19.9339474 18.6,19.6846491 18.6942982,19.2819298 C18.7885088,18.88 18.5385088,18.4772807 18.1357895,18.3829825 Z" id="Shape"></path>
                        <path d="M25.5313158,30.2816667 C25.6637719,30.5407018 25.9272807,30.6903509 26.1997368,30.6903509 C26.3135088,30.6903509 26.4302632,30.6641228 26.5388596,30.6087719 C26.5829825,30.5863158 30.9889474,28.3481579 33.1619298,27.6617544 C33.5557018,27.5367544 33.7742105,27.1160526 33.6492105,26.7223684 C33.5249123,26.3286842 33.1072807,26.1092982 32.7098246,26.2335965 C30.4207895,26.9574561 26.0448246,29.180614 25.8592105,29.2749123 C25.4908772,29.4620175 25.3442105,29.9127193 25.5313158,30.2816667 Z" id="Shape"></path>
                        <path d="M18.1357895,22.8742105 C13.5135965,21.7903509 8.26105263,23.170614 8.04026316,23.2305263 C7.64131579,23.3375439 7.40403509,23.747807 7.51105263,24.1474561 C7.60087719,24.4820175 7.90324561,24.7028947 8.23342105,24.7028947 C8.29780702,24.7028947 8.36289474,24.6939474 8.42807018,24.6766667 C8.47824561,24.6624561 13.5353509,23.3322807 17.7945614,24.3315789 C18.195,24.4251754 18.6,24.1758772 18.6942982,23.7731579 C18.7885088,23.3712281 18.5385088,22.9685088 18.1357895,22.8742105 Z" id="Shape"></path>
                        <path d="M18.1357895,31.8566667 C13.5135965,30.7720175 8.26105263,32.1538596 8.04026316,32.2129825 C7.64131579,32.32 7.40403509,32.7302632 7.51105263,33.1299123 C7.60087719,33.4644737 7.90324561,33.6853509 8.23342105,33.6853509 C8.29780702,33.6853509 8.36289474,33.6764035 8.42807018,33.6591228 C8.47824561,33.6449123 13.5353509,32.3147368 17.7945614,33.3140351 C18.195,33.4068421 18.6,33.1583333 18.6942982,32.755614 C18.7885088,32.3536842 18.5385088,31.9509649 18.1357895,31.8566667 Z" id="Shape"></path>
                        <path d="M18.1357895,27.3654386 C13.5135965,26.2807895 8.26105263,27.6618421 8.04026316,27.7217544 C7.64131579,27.8287719 7.40403509,28.2390351 7.51105263,28.6386842 C7.60087719,28.9732456 7.90324561,29.1941228 8.23342105,29.1941228 C8.29780702,29.1941228 8.36289474,29.1851754 8.42807018,29.1678947 C8.47824561,29.1536842 13.5353509,27.8235088 17.7945614,28.822807 C18.195,28.9164035 18.6,28.6671053 18.6942982,28.264386 C18.7885088,27.8624561 18.5385088,27.4597368 18.1357895,27.3654386 Z" id="Shape"></path>
                    </g>
                </g>
            </g>
        </g>
    </g>
</svg>