<?xml version="1.0" encoding="UTF-8"?>
<svg width="50px" height="50px" viewBox="0 0 50 50" version="1.1" xmlns="http://www.w3.org/2000/svg" xmlns:xlink="http://www.w3.org/1999/xlink">
    <!-- Generator: Sketch 50.2 (55047) - http://www.bohemiancoding.com/sketch -->
    <title>Explore_1</title>
    <desc>Created with Sketch.</desc>
    <defs></defs>
    <g id="Explore_1" stroke="none" stroke-width="1" fill="none" fill-rule="evenodd">
        <g id="Group-4" transform="translate(1.000000, 1.000000)" fill="#000000" fill-rule="nonzero">
            <polygon id="Shape" points="0 22 4 22 4 27 0 27"></polygon>
            <path d="M10,30 L14,30 L14,33.3401762 C14,34.2568678 13.2865717,35 12.4065215,35 L10,35 L10,30 Z" id="Shape"></path>
            <polygon id="Shape" points="16 21.890863 31 15 31 35 16 28.1091371"></polygon>
            <polygon id="Shape" points="6 30 11 30 11 39 6 39"></polygon>
            <path d="M42.4000717,1 L36,7.93359214 L36,14 L41.5999283,14 L48,7.06679611 L42.4000717,1 Z M39.6001075,11.4 C38.9372032,11.4 38.4000717,10.8181249 38.4000717,10.1 C38.4000717,9.38226338 38.9372032,8.80000002 39.6001075,8.80000002 C40.2626534,8.80000002 40.8001433,9.38226338 40.8001433,10.1 C40.8001433,10.8181249 40.2626534,11.4 39.6001075,11.4 Z" id="Shape"></path>
            <path d="M5.33376263,19 L13.6666014,19 C14.955211,19 16,20.0103657 16,21.2565185 L16,27.7434815 C16,28.9896344 14.955211,30 13.6666014,30 L5.33376263,30 C4.04478909,30 3,28.9896344 3,27.7434815 L3,21.2565185 C3,20.0103657 4.04478909,19 5.33376263,19 Z" id="Shape"></path>
            <path d="M39.8331486,33 L34,38.8333641 L42.1668514,47 L48,41.1670053 L39.8331486,33 Z M40.3530219,41.4060595 C39.9473212,41.3746536 39.6251254,41.0520968 39.5940882,40.6464068 L39.1979942,35.5021245 L40.8429665,35.375762 L41.1843758,39.8158138 L45.715809,40.1638647 L45.5898126,41.8087936 L40.3530219,41.4060595 Z" id="Shape"></path>
            <path d="M45,19.5 C45,20.8810092 43.8809257,22 42.4998133,22 C41.1190743,22 40,20.8810092 40,19.5 C40,18.119364 41.1190743,17 42.4998133,17 C43.8809257,17 45,18.119364 45,19.5 Z" id="Shape"></path>
            <path d="M42.6415094,23 L44.3592743,23 C45.8179833,23.0003919 47,24.1831925 47,25.6415094 L47,30 L40,30 L40,25.6415094 C40,24.1828006 41.1828005,23 42.6415094,23 Z" id="Shape"></path>
            <path d="M39,20.5 C39,21.3284434 38.3284434,22 37.5,22 C36.6715566,22 36,21.3284434 36,20.5 C36,19.6715566 36.6715566,19 37.5,19 C38.3284434,19 39,19.6715566 39,20.5 Z" id="Shape"></path>
            <path d="M36.5,23 C37.880636,23 39,24.119364 39,25.5 L39,28 L34,28 L34,25.5 C34,24.119364 35.1193639,23 36.5,23 Z" id="Shape"></path>
            <path d="M31,1.20583569 L29.8695175,0 L24.9855607,5.20797276 C22.5011488,3.22485619 18.9797152,3.76532413 17.1205244,6.41533627 C15.2613336,9.0653484 15.7680275,12.8215056 18.2524394,14.8046222 C20.7372093,16.7881207 24.2582847,16.2472707 26.1178336,13.5972586 C27.6114171,11.4682348 27.6114171,8.54436005 26.1178336,6.41533627 L31,1.20583569 Z M21.6406643,14.247348 C19.4326961,14.247348 17.6429742,12.338331 17.6429742,9.983571 C17.6429742,7.62842915 19.4326961,5.71941213 21.6406643,5.71941213 C23.8482744,5.71941213 25.6379962,7.62842915 25.6379962,9.983571 C25.6354896,12.3371851 23.8472001,14.2442924 21.6406643,14.247348 Z" id="Shape"></path>
            <path d="M22.4209335,35 L19.052711,35 L14,39.9412199 L23.2631777,49 L30,42.4118298 L22.4209335,35 Z M18.4571428,41.0061125 L21.8257426,37.711843 L23.0165016,38.8763272 L19.6479019,42.1705967 L18.4571428,41.0061125 Z M22.1742574,44.6412067 L20.9834984,43.4767224 L24.352098,40.1824529 L25.5428572,41.3469372 L22.1742574,44.6412067 Z" id="Shape"></path>
        </g>
    </g>
</svg>