<?xml version="1.0" encoding="UTF-8"?>
<svg width="50px" height="50px" viewBox="0 0 50 50" version="1.1" xmlns="http://www.w3.org/2000/svg" xmlns:xlink="http://www.w3.org/1999/xlink">
    <!-- Generator: Sketch 50.2 (55047) - http://www.bohemiancoding.com/sketch -->
    <title>explore</title>
    <desc>Created with Sketch.</desc>
    <defs></defs>
    <g id="explore" stroke="none" stroke-width="1" fill="none" fill-rule="evenodd">
        <path d="M25,22.25 C23.5,22.25 22.25,23.5 22.25,25 C22.25,26.5 23.5,27.75 25,27.75 C26.5,27.75 27.75,26.5 27.75,25 C27.75,23.5 26.5,22.25 25,22.25 Z M25,0 C11.25,0 0,11.25 0,25 C0,38.75 11.25,50 25,50 C38.75,50 50,38.75 50,25 C50,11.25 38.75,0 25,0 Z M30.5,30.5 L10,40 L19.5,19.5 L40,10 L30.5,30.5 Z" id="Shape" fill="#000000" fill-rule="nonzero"></path>
    </g>
</svg>