<?xml version="1.0" encoding="UTF-8"?>
<svg width="50px" height="50px" viewBox="0 0 50 50" version="1.1" xmlns="http://www.w3.org/2000/svg" xmlns:xlink="http://www.w3.org/1999/xlink">
    <!-- Generator: Sketch 50.2 (55047) - http://www.bohemiancoding.com/sketch -->
    <title>ad_blocker</title>
    <desc>Created with Sketch.</desc>
    <defs></defs>
    <g id="ad_blocker" stroke="none" stroke-width="1" fill="none" fill-rule="evenodd">
        <g id="ads" transform="translate(0.000000, 3.000000)" fill="#000000" fill-rule="nonzero">
            <path d="M49.2675781,4.89840348 L45.3125,4.89840348 L45.3125,0.734760522 C45.3125,0.328976778 44.984668,0 44.5800781,0 L0.732421875,0 C0.327929687,0 0,0.328976778 0,0.734760522 L0,32.3458237 C0,32.7516074 0.327929687,33.0805842 0.732421875,33.0805842 C1.13691406,33.0805842 1.46484375,32.7516074 1.46484375,32.3458237 L1.46484375,6.36792453 L43.8476562,6.36792453 L43.8476562,13.527725 C43.8476562,13.9335087 44.1754883,14.2624855 44.5800781,14.2624855 C44.984668,14.2624855 45.3125,13.9335087 45.3125,13.527725 L45.3125,11.266328 L48.5351562,11.266328 L48.5351562,43.1059507 L43.7011719,43.1059507 C43.296582,43.1059507 42.96875,43.4349274 42.96875,43.8407112 C42.96875,44.2464949 43.296582,44.5754717 43.7011719,44.5754717 L49.2675781,44.5754717 C49.672168,44.5754717 50,44.2464949 50,43.8407112 L50,5.63316401 C50,5.22738026 49.672168,4.89840348 49.2675781,4.89840348 Z M10.9375,4.89840348 L1.46484375,4.89840348 L1.46484375,1.46952104 L10.9375,1.46952104 L10.9375,4.89840348 Z M43.8476562,4.89840348 L12.4023438,4.89840348 L12.4023438,1.46952104 L43.8476562,1.46952104 L43.8476562,4.89840348 Z M48.5351563,9.79680697 L45.3125,9.79680697 L45.3125,6.36792453 L48.5351563,6.36792453 L48.5351563,9.79680697 Z" id="Shape"></path>
            <path d="M44.5510735,16.0377358 C44.1467469,16.0377358 43.8191282,16.3659198 43.8191282,16.7707256 L43.8191282,38.2228935 L1.4638907,38.2228935 L1.4638907,35.5352643 C1.4638907,35.1304585 1.13617437,34.8022745 0.731945348,34.8022745 C0.327716331,34.8022745 0,35.1304585 0,35.5352643 L0,38.9558833 C0,39.3606891 0.327716331,39.6888731 0.731945348,39.6888731 L4.68445023,39.6888731 L4.68445023,43.8424819 C4.68445023,44.2472877 5.01216656,44.5754717 5.41639558,44.5754717 L40.6026675,44.5754717 C41.0069941,44.5754717 41.3346129,44.2472877 41.3346129,43.8424819 C41.3346129,43.4376761 41.0069941,43.1094921 40.6026675,43.1094921 L6.14834092,43.1094921 L6.14834092,39.6888731 L44.5510735,39.6888731 C44.9554001,39.6888731 45.2830189,39.3606891 45.2830189,38.9558833 L45.2830189,16.7707256 C45.2830189,16.3659198 44.9554001,16.0377358 44.5510735,16.0377358 Z" id="Shape"></path>
            <path d="M29.86233,29.009434 L14.2414436,29.009434 C12.7609741,29.009434 11.5566038,30.212 11.5566038,31.6902516 L11.5566038,33.6399371 C11.5566038,35.1181887 12.7609741,36.3207547 14.2414436,36.3207547 L29.86233,36.3207547 C31.3427018,36.3207547 32.5471698,35.1181887 32.5471698,33.6399371 L32.5471698,31.6902516 C32.5471698,30.212 31.3427018,29.009434 29.86233,29.009434 Z M31.0827117,33.6399371 C31.0827117,34.3118962 30.5352973,34.8584906 29.86233,34.8584906 L14.2414436,34.8584906 C13.5684763,34.8584906 13.0210619,34.3118962 13.0210619,33.6399371 L13.0210619,31.6902516 C13.0210619,31.0182925 13.5684763,30.4716981 14.2414436,30.4716981 L29.86233,30.4716981 C30.5352973,30.4716981 31.0827117,31.0182925 31.0827117,31.6902516 L31.0827117,33.6399371 Z" id="Shape"></path>
            <circle id="Oval" cx="3.53773585" cy="3.30188679" r="1"></circle>
            <circle id="Oval" cx="8.96226415" cy="3.30188679" r="1"></circle>
            <circle id="Oval" cx="6.36792453" cy="3.30188679" r="1"></circle>
            <path d="M17.4102088,24.4906626 L12.8320103,11.5720959 C12.7286821,11.2805451 12.4549205,11.0855907 12.147655,11.0849057 C12.1471694,11.0849057 12.1466839,11.0849057 12.1461012,11.0849057 C11.8395154,11.0849057 11.5655596,11.2784899 11.4612603,11.5691598 C11.4498009,11.601065 10.3037703,14.7925624 9.1722096,17.9643881 C6.84159457,24.4973176 6.84120611,24.5515369 6.83965231,24.7312238 C6.83605912,25.1365958 7.15934832,25.468077 7.56159039,25.4716002 C7.56372688,25.4716002 7.56586336,25.4716002 7.56809696,25.4716002 C7.91799512,25.4716002 8.21117929,25.2224266 8.2807122,24.8894774 C8.35879106,24.623764 8.90456615,23.0694137 9.6396145,20.9988063 L14.6259789,20.9988063 L16.0383905,24.98441 C16.1447292,25.2845732 16.4251916,25.4716981 16.7242996,25.4716981 C16.8055832,25.4716981 16.8883235,25.4578986 16.9692186,25.4287338 C17.3480565,25.2924027 17.5454872,24.8723504 17.4102088,24.4906626 Z M10.1615969,19.5308741 C10.7886556,17.7698252 11.4924335,15.8016862 12.1419253,13.9894521 L14.1057445,19.5308741 L10.1615969,19.5308741 Z" id="Shape"></path>
            <path d="M19.3910753,11.0849057 L19.1370293,11.0849057 C18.7279086,11.0849057 18.3962264,11.4135509 18.3962264,11.8189257 L18.3962264,24.7376781 C18.3962264,25.1430529 18.7279086,25.4716981 19.1370293,25.4716981 L19.3910753,25.4716981 C23.3941764,25.4716981 26.6509434,22.2447504 26.6509434,18.2783019 C26.6509434,14.3118534 23.3941764,11.0849057 19.3910753,11.0849057 Z M19.8778322,23.9833991 L19.8778322,12.5730089 C22.8369939,12.8187588 25.1692389,15.2836959 25.1692389,18.278204 C25.1692389,21.2727121 22.8369939,23.7377471 19.8778322,23.9833991 Z" id="Shape"></path>
            <path d="M33.0540967,17.2925619 L31.4918729,17.2925619 C30.2897824,17.2925619 29.3118121,16.3235576 29.3118121,15.1324878 L29.3118121,14.7130198 C29.3118121,13.52195 30.2897824,12.5529457 31.4918729,12.5529457 L32.4232214,12.5529457 C33.6253119,12.5529457 34.6032822,13.52195 34.6032822,14.7130198 C34.6032822,15.1183946 34.9348695,15.4470399 35.3440939,15.4470399 C35.7533183,15.4470399 36.0849057,15.1183946 36.0849057,14.7130198 C36.0849057,12.7124727 34.4422791,11.0849057 32.4232214,11.0849057 L31.4918729,11.0849057 C29.4728152,11.0849057 27.8301887,12.7124727 27.8301887,14.7130198 L27.8301887,15.1324878 C27.8301887,17.1330349 29.4728152,18.760602 31.4918729,18.760602 L33.0540967,18.760602 C33.908302,18.760602 34.6032822,19.4492106 34.6032822,20.2955846 L34.6032822,21.8434861 C34.6032822,23.0345559 33.6253119,24.0036581 32.4232214,24.0036581 L31.4918729,24.0036581 C30.2897824,24.0036581 29.3118121,23.0346538 29.3118121,21.8434861 L29.3118121,21.38213 C29.3118121,20.9767552 28.980126,20.64811 28.5710004,20.64811 C28.161776,20.64811 27.8301887,20.9767552 27.8301887,21.38213 L27.8301887,21.8434861 C27.8301887,23.8440332 29.4728152,25.4716981 31.4918729,25.4716981 L32.4232214,25.4716981 C34.4422791,25.4716981 36.0849057,23.844131 36.0849057,21.8434861 L36.0849057,20.2955846 C36.0849057,18.6397333 34.7252692,17.2925619 33.0540967,17.2925619 Z" id="Shape"></path>
        </g>
        <g id="rounded-block-sign" fill="#000000" fill-rule="nonzero">
            <path d="M25,0 C11.25,0 0,11.25 0,25 C0,38.75 11.25,50 25,50 C38.75,50 50,38.75 50,25 C50,11.25 38.75,0 25,0 Z M5,25 C5,14 14,5 25,5 C29.5,5 33.75,6.5 37.25,9.25 L9.25,37.25 C6.5,33.75 5,29.5 5,25 Z M25,45 C20.5,45 16.25,43.5 12.75,40.75 L40.75,12.75 C43.5,16.25 45,20.5 45,25 C45,36 36,45 25,45 Z" id="Shape"></path>
        </g>
    </g>
</svg>