<?xml version="1.0" encoding="UTF-8"?>
<svg width="50px" height="50px" viewBox="0 0 50 50" version="1.1" xmlns="http://www.w3.org/2000/svg" xmlns:xlink="http://www.w3.org/1999/xlink">
    <!-- Generator: Sketch 50.2 (55047) - http://www.bohemiancoding.com/sketch -->
    <title>Explore_2</title>
    <desc>Created with Sketch.</desc>
    <defs></defs>
    <g id="Explore_2" stroke="none" stroke-width="1" fill="none" fill-rule="evenodd">
        <g id="dollar-symbol-(1)" transform="translate(1.000000, 0.000000)" fill="#000000" fill-rule="nonzero">
            <path d="M24.5,34.4814815 C23.9479269,34.4814815 23.5062684,34.9275812 23.5062684,35.4852059 L23.5062684,39.9563418 C21.4786545,40.4125802 19.962963,42.2375336 19.962963,44.4173391 C19.962963,46.9418581 22.0006146,49 24.5,49 C26.9993854,49 29.037037,46.9418581 29.037037,44.4173391 C29.037037,42.2375336 27.5213455,40.4125802 25.4937316,39.9563418 L25.4937316,35.4852059 C25.4937316,34.9275812 25.0520731,34.4814815 24.5,34.4814815 Z M27.0495739,44.4274778 C27.0495739,45.846886 25.905277,47.0026898 24.5,47.0026898 C23.094723,47.0026898 21.9504261,45.846886 21.9504261,44.4274778 C21.9504261,43.0080695 23.094723,41.8522657 24.5,41.8522657 C25.905277,41.8522657 27.0495739,43.0080695 27.0495739,44.4274778 Z" id="Shape"></path>
            <path d="M24.5,14.5185185 C25.0520731,14.5185185 25.4937316,14.0724188 25.4937316,13.5147941 L25.4937316,9.04365818 C27.5213455,8.58741982 29.037037,6.76246638 29.037037,4.58266087 C29.037037,2.05814194 26.9993854,0 24.5,0 C22.0006146,0 19.962963,2.05814194 19.962963,4.58266087 C19.962963,6.76246638 21.4786545,8.58741982 23.5062684,9.04365818 L23.5062684,13.5147941 C23.5062684,14.0724188 23.9479269,14.5185185 24.5,14.5185185 Z M21.9504261,4.57252224 C21.9504261,3.15311401 23.094723,1.99731016 24.5,1.99731016 C25.905277,1.99731016 27.0495739,3.15311401 27.0495739,4.57252224 C27.0495739,5.99193048 25.905277,7.14773433 24.5,7.14773433 C23.094723,7.14773433 21.9504261,5.99193048 21.9504261,4.57252224 Z" id="Shape"></path>
            <path d="M39.9563418,25.4937316 C40.4125802,27.5213455 42.2375336,29.037037 44.4173391,29.037037 C46.9418581,29.037037 49,26.9993854 49,24.5 C49,22.0006146 46.9418581,19.962963 44.4173391,19.962963 C42.2375336,19.962963 40.4125802,21.4786545 39.9563418,23.5062684 L35.4852059,23.5062684 C34.9275812,23.5062684 34.4814815,23.9479269 34.4814815,24.5 C34.4814815,25.0520731 34.9275812,25.4937316 35.4852059,25.4937316 L39.9563418,25.4937316 Z M41.8522657,24.5 C41.8522657,23.094723 43.0080695,21.9504261 44.4274778,21.9504261 C45.846886,21.9504261 47.0026898,23.094723 47.0026898,24.5 C47.0026898,25.905277 45.846886,27.0495739 44.4274778,27.0495739 C43.0080695,27.0495739 41.8522657,25.905277 41.8522657,24.5 Z" id="Shape"></path>
            <path d="M0,24.5 C0,26.9993854 2.05814194,29.037037 4.58266087,29.037037 C6.76246638,29.037037 8.58741982,27.5213455 9.04365818,25.4937316 L13.5147941,25.4937316 C14.0724188,25.4937316 14.5185185,25.0520731 14.5185185,24.5 C14.5185185,23.9479269 14.0724188,23.5062684 13.5147941,23.5062684 L9.04365818,23.5062684 C8.58741982,21.4786545 6.76246638,19.962963 4.58266087,19.962963 C2.04800331,19.962963 0,22.0006146 0,24.5 Z M7.14773433,24.5 C7.14773433,25.905277 5.99193048,27.0495739 4.57252224,27.0495739 C3.15311401,27.0495739 1.99731016,25.905277 1.99731016,24.5 C1.99731016,23.094723 3.15311401,21.9504261 4.57252224,21.9504261 C5.99193048,21.9504261 7.14773433,23.094723 7.14773433,24.5 Z" id="Shape"></path>
            <path d="M31.7433398,31.7445454 C31.3612736,32.1265706 31.3612736,32.7338926 31.7433398,33.1159178 L34.79987,36.1721192 C34.3492278,36.8773965 34.1141101,37.6904244 34.1141101,38.5328389 C34.1141101,39.7180965 34.5745489,40.82499 35.4072575,41.657609 C36.239966,42.490228 37.3567751,42.9506173 38.5323637,42.9506173 C39.7177488,42.9506173 40.8247613,42.490228 41.6574699,41.657609 C43.3816664,39.9335979 43.3816664,37.1222844 41.6574699,35.3982734 C40.8247613,34.5656544 39.7079522,34.1052651 38.5323637,34.1052651 C37.680062,34.1052651 36.8669466,34.350153 36.17139,34.7909513 L33.1148598,31.7347499 C32.7327935,31.3625202 32.1156095,31.3625202 31.7433398,31.7445454 Z M36.7787774,36.7794413 C37.2490128,36.3092565 37.8759934,36.054573 38.5323637,36.054573 C39.1985305,36.054573 39.8157145,36.3092565 40.2859499,36.7794413 C41.2558105,37.7491975 41.2558105,39.3262758 40.2859499,40.2960321 C39.8157145,40.7662169 39.1887339,41.0209004 38.5323637,41.0209004 C37.8661968,41.0209004 37.2490128,40.7662169 36.7787774,40.2960321 C36.308542,39.8258472 36.0538312,39.1989341 36.0538312,38.5426345 C36.0440346,37.8667438 36.308542,37.2496262 36.7787774,36.7794413 Z" id="Shape"></path>
            <path d="M13.5927425,7.34280572 C12.760034,6.5099197 11.6432249,6.04938272 10.4676363,6.04938272 C9.28225121,6.04938272 8.17523867,6.5099197 7.34253011,7.34280572 C6.50982156,8.17569175 6.04938272,9.29273889 6.04938272,10.468578 C6.04938272,11.6542157 6.50982156,12.7614642 7.34253011,13.5943502 C8.17523867,14.4272363 9.29204778,14.8877733 10.4676363,14.8877733 C11.319938,14.8877733 12.1330534,14.6428068 12.82861,14.2018671 L15.8851402,17.2590488 C16.0712751,17.4452233 16.3259859,17.5432099 16.5709002,17.5432099 C16.8158145,17.5432099 17.0705253,17.4452233 17.2566602,17.2590488 C17.6387264,16.8769011 17.6387264,16.2693842 17.2566602,15.8872365 L14.20013,12.8300548 C14.6507722,12.1245514 14.8858899,11.3112627 14.8858899,10.468578 C14.8956865,9.28294023 14.4352477,8.17569175 13.5927425,7.34280572 Z M12.2212226,12.222538 C11.7509872,12.6928736 11.1240066,12.9476387 10.4676363,12.9476387 C9.80146949,12.9476387 9.1842855,12.6928736 8.71405008,12.222538 C8.24381466,11.7522023 7.98910381,11.1250881 7.98910381,10.468578 C7.98910381,9.81206782 8.24381466,9.17515498 8.71405008,8.714618 C9.1842855,8.24428236 9.81126606,7.98951722 10.4676363,7.98951722 C11.1338032,7.98951722 11.7509872,8.24428236 12.2212226,8.714618 C12.691458,9.18495364 12.9461688,9.81206782 12.9461688,10.468578 C12.9559654,11.1348868 12.691458,11.7522023 12.2212226,12.222538 Z" id="Shape"></path>
            <path d="M34.1118471,10.4746041 C34.1118471,11.3263613 34.3565528,12.1389572 34.7970231,12.8340694 L31.7430958,15.888647 C31.3613549,16.2704692 31.3613549,16.8774686 31.7430958,17.2592908 C31.9290721,17.4453067 32.1835661,17.5432099 32.4282718,17.5432099 C32.6729775,17.5432099 32.9274714,17.4453067 33.1134478,17.2592908 L36.1771633,14.2047132 C36.8819157,14.6550676 37.6943387,14.8900351 38.5361263,14.8900351 C39.7205019,14.8900351 40.8265717,14.4298904 41.6585711,13.5977138 C43.3812993,11.8746188 43.3812993,9.06479904 41.6585711,7.341704 C40.8265717,6.50952741 39.7107137,6.04938272 38.5361263,6.04938272 C37.3517507,6.04938272 36.2456809,6.50952741 35.4136814,7.341704 C34.5718938,8.18367089 34.1118471,9.28997623 34.1118471,10.4746041 Z M36.7840334,8.72213809 C37.2538684,8.25220308 37.880315,7.99765495 38.5361263,7.99765495 C39.2017258,7.99765495 39.8183842,8.25220308 40.2882192,8.72213809 C41.2572538,9.69137906 41.2572538,11.2676194 40.2882192,12.2368604 C39.8183842,12.7067954 39.1919376,12.9613435 38.5361263,12.9613435 C37.8705268,12.9613435 37.2538684,12.7067954 36.7840334,12.2368604 C36.3141985,11.7669254 36.0597045,11.1403453 36.0597045,10.4843944 C36.0499163,9.80886281 36.3141985,9.18228279 36.7840334,8.72213809 Z" id="Shape"></path>
            <path d="M17.2566602,31.7433398 C16.8745939,31.3612736 16.2672065,31.3612736 15.8851402,31.7433398 L12.82861,34.79987 C12.1232569,34.3492278 11.3101415,34.1141101 10.4676363,34.1141101 C9.28225121,34.1141101 8.17523867,34.5745489 7.34253011,35.4072575 C6.50982156,36.239966 6.04938272,37.3567751 6.04938272,38.5323637 C6.04938272,39.7177488 6.50982156,40.8247613 7.34253011,41.6574699 C8.17523867,42.4901784 9.29204778,42.9506173 10.4676363,42.9506173 C11.6530214,42.9506173 12.760034,42.4901784 13.5927425,41.6574699 C15.0818214,40.1683911 15.2875494,37.8759934 14.20013,36.1615934 L17.2566602,33.1050632 C17.6387264,32.7327935 17.6387264,32.1156095 17.2566602,31.7433398 Z M12.2212226,40.2859499 C11.7509872,40.7561853 11.1240066,41.0108962 10.4676363,41.0108962 C9.80146949,41.0108962 9.1842855,40.7561853 8.71405008,40.2859499 C8.24381466,39.8157145 7.98910381,39.1887339 7.98910381,38.5323637 C7.98910381,37.8661968 8.24381466,37.2490128 8.71405008,36.7787774 C9.1842855,36.308542 9.81126606,36.0538312 10.4676363,36.0538312 C11.1338032,36.0538312 11.7509872,36.308542 12.2212226,36.7787774 C13.1910831,37.748638 13.1910831,39.3258859 12.2212226,40.2859499 Z" id="Shape"></path>
            <path d="M23.3803449,25.172034 L25.6099189,25.172034 C26.4277539,25.172034 27.0898108,25.8551909 27.0898108,26.709137 C27.0898108,27.5530366 26.4277539,28.2361935 25.6099189,28.2361935 L21.598633,28.2361935 C21.0631458,28.2361935 20.634756,28.6782362 20.634756,29.2307895 C20.634756,29.7833429 21.0631458,30.2253855 21.598633,30.2253855 L23.536123,30.2253855 L23.536123,31.6720706 C23.536123,32.224624 23.9645128,32.6666667 24.5,32.6666667 C25.0354872,32.6666667 25.463877,32.224624 25.463877,31.6720706 L25.463877,30.2253855 L25.6196551,30.2253855 C27.4987283,30.2253855 29.037037,28.6480969 29.037037,26.709137 C29.037037,24.7701771 27.5084645,23.182842 25.6196551,23.182842 L23.3900811,23.182842 C22.5722461,23.182842 21.9101892,22.4996851 21.9101892,21.6557855 C21.9101892,20.8118858 22.5722461,20.128729 23.3900811,20.128729 L27.323478,20.128729 C27.8589652,20.128729 28.287355,19.6866863 28.287355,19.1341329 C28.287355,18.5815796 27.8589652,18.1395369 27.323478,18.1395369 L25.463877,18.1395369 L25.463877,16.7229911 C25.463877,16.1704377 25.0354872,15.7283951 24.5,15.7283951 C23.9645128,15.7283951 23.536123,16.1704377 23.536123,16.7229911 L23.536123,18.1395369 L23.3803449,18.1395369 C21.5012717,18.1395369 19.962963,19.7168256 19.962963,21.6658319 C19.9726991,23.5947454 21.5012717,25.172034 23.3803449,25.172034 Z" id="Shape"></path>
        </g>
    </g>
</svg>