<?xml version="1.0" encoding="UTF-8"?>
<svg width="50px" height="50px" viewBox="0 0 50 50" version="1.1" xmlns="http://www.w3.org/2000/svg" xmlns:xlink="http://www.w3.org/1999/xlink">
    <!-- Generator: Sketch 50.2 (55047) - http://www.bohemiancoding.com/sketch -->
    <title>history</title>
    <desc>Created with Sketch.</desc>
    <defs></defs>
    <g id="history" stroke="none" stroke-width="1" fill="none" fill-rule="evenodd" opacity="0.9">
        <path d="M26.25,1 C17.5,1 9.75,5.75 5.75,13 L0,7.25 L0,23.5 L16.25,23.5 L9.25,16.5 C12.5,10.25 18.75,6 26.25,6 C36.5,6 45,14.5 45,24.75 C45,35 36.5,43.5 26.25,43.5 C18,43.5 11.25,38.25 8.5,31 L3.25,31 C6,41 15.25,48.5 26.25,48.5 C39.5,48.5 50,37.75 50,24.75 C50,11.75 39.25,1 26.25,1 Z M22.5,13.5 L22.5,26.25 L34.25,33.25 L36.25,30 L26.25,24 L26.25,13.5 L22.5,13.5 Z" id="Shape" fill="#000000" fill-rule="nonzero"></path>
    </g>
</svg>