<?xml version="1.0" encoding="UTF-8"?>
<svg width="62px" height="46px" viewBox="0 0 62 46" version="1.1" xmlns="http://www.w3.org/2000/svg" xmlns:xlink="http://www.w3.org/1999/xlink">
    <!-- Generator: Sketch 52.5 (67469) - http://www.bohemiancoding.com/sketch -->
    <title>identification</title>
    <desc>Created with Sketch.</desc>
    <g id="Page-1" stroke="none" stroke-width="1" fill="none" fill-rule="evenodd">
        <g id="Home" transform="translate(-178.000000, -1122.000000)" fill="#4A4A4A" fill-rule="nonzero">
            <g id="identification" transform="translate(178.000000, 1122.000000)">
                <path d="M18.5,22 C22.0898513,22 25,19.0894584 25,15.5 C25,11.9101487 22.0898513,9 18.5,9 C14.9101487,9 12,11.9101487 12,15.5 C12.0047147,19.0878868 14.9121132,21.9952853 18.5,22 Z M18.5,11.5270793 C20.7009792,11.5270793 22.4854932,13.3112004 22.4854932,15.5125725 C22.4854932,17.7135517 20.7009792,19.4980658 18.5,19.4980658 C16.2986279,19.4980658 14.5145068,17.7135517 14.5145068,15.5125725 C14.5152925,13.3115934 16.2990208,11.527865 18.5,11.5270793 Z" id="Shape"></path>
                <path d="M18.5,25.0002758 C15.7026724,24.9799401 13.0177504,26.0849852 11.0680101,28.0587738 C9.08438287,30.0500513 8,32.7571474 8,35.6985115 C8.00206625,36.4163637 8.59302191,36.9979665 9.32241814,37 L27.6775819,37 C28.4069781,36.9979665 28.9979337,36.4163637 29,35.6985115 C29,32.7571474 27.9156171,30.0500513 25.9319899,28.0587738 C23.9822496,26.0849852 21.2977408,24.9799401 18.5,25.0002758 Z M10.7374055,34.3970229 C10.9638696,32.6953267 11.7432698,31.1115778 12.959068,29.8808578 C14.4224063,28.4235973 16.4180179,27.6032528 18.5,27.6032528 C20.5819821,27.6032528 22.5775937,28.4235973 24.040932,29.8808578 C25.2542506,31.112798 26.0336509,32.6961401 26.2625945,34.3970229 L10.7374055,34.3970229 Z" id="Shape"></path>
                <path d="M55.5416667,0 L6.45833333,0 C2.89212237,0.00162429379 0.00161458333,2.90951622 0,6.49717514 L0,39.5028249 C0.00161458333,43.0904838 2.89212237,45.9983757 6.45833333,46 L55.5416667,46 C59.1078776,45.9983757 61.9983854,43.0904838 62,39.5028249 L62,6.49717514 C61.9983854,2.90951622 59.1078776,0.00162429379 55.5416667,0 Z M59.4166667,39.5028249 C59.410612,41.6529838 57.6789714,43.3950388 55.5416667,43.4011299 L6.45833333,43.4011299 C4.32102862,43.3950388 2.58938805,41.6529838 2.58333333,39.5028249 L2.58333333,6.49717514 C2.58938805,4.34701622 4.32102862,2.60496118 6.45833333,2.59887006 L55.5416667,2.59887006 C57.6789714,2.60496118 59.410612,4.34701622 59.4166667,6.49717514 L59.4166667,39.5028249 Z" id="Shape"></path>
                <path d="M52.6813187,22 L37.3186813,22 C36.590522,22 36,22.67125 36,23.5 C36,24.32875 36.590522,25 37.3186813,25 L52.6813187,25 C53.409478,25 54,24.32875 54,23.5 C54,22.67125 53.409478,22 52.6813187,22 Z" id="Shape"></path>
                <path d="M52.6813187,30 L37.3186813,30 C36.590522,30 36,30.67125 36,31.5 C36,32.32875 36.590522,33 37.3186813,33 L52.6813187,33 C53.409478,33 54,32.32875 54,31.5 C54,30.67125 53.409478,30 52.6813187,30 Z" id="Shape"></path>
                <path d="M52.6813187,13 L37.3186813,13 C36.590522,13 36,13.67125 36,14.5 C36,15.32875 36.590522,16 37.3186813,16 L52.6813187,16 C53.409478,16 54,15.32875 54,14.5 C54,13.67125 53.409478,13 52.6813187,13 Z" id="Shape"></path>
            </g>
        </g>
    </g>
</svg>