<?xml version="1.0" encoding="UTF-8"?>
<svg width="50px" height="20px" viewBox="0 0 50 20" version="1.1" xmlns="http://www.w3.org/2000/svg" xmlns:xlink="http://www.w3.org/1999/xlink">
    <!-- Generator: Sketch 52.5 (67469) - http://www.bohemiancoding.com/sketch -->
    <title>Shape</title>
    <desc>Created with Sketch.</desc>
    <g id="Page-1" stroke="none" stroke-width="1" fill="none" fill-rule="evenodd">
        <g id="Home" transform="translate(-503.000000, -923.000000)" fill="#FFFFFF" fill-rule="nonzero">
            <g id="Group-5" transform="translate(488.000000, 893.000000)">
                <g id="Group-2">
                    <g id="eyeglasses" transform="translate(15.000000, 30.000000)">
                        <path d="M49.1666667,8.33333333 L47.35,8.33333333 C46.5575,3.61166667 42.475,0 37.56,0 C32.7083333,0 28.6466667,3.4325 27.7058333,7.9825 C26.8966667,7.30416667 25.9733333,6.94416667 25,6.94416667 C24.0275,6.94416667 23.105,7.30416667 22.2958333,7.98166667 C21.3658333,3.43166667 17.3541667,0 12.56,0 C7.29666667,0 2.97083333,4.0425 2.5425,9.16666667 L0.833333333,9.16666667 C0.3725,9.16666667 0,9.54 0,10 C0,10.46 0.3725,10.8333333 0.833333333,10.8333333 L2.5425,10.8333333 C2.97083333,15.9575 7.29666667,20 12.56,20 C17.9491667,20 22.34,15.6608333 22.4858333,10.2741667 C23.1966667,9.20333333 24.0816667,8.61083333 25,8.61083333 C25.9183333,8.61083333 26.8033333,9.20416667 27.5141667,10.2741667 C27.6625,15.6608333 32.1066667,20 37.56,20 C43.0408333,20 47.5,15.5141667 47.5,10 L49.1666667,10 C49.6275,10 50,9.62666667 50,9.16666667 C50,8.70666667 49.6275,8.33333333 49.1666667,8.33333333 Z M12.56,18.3333333 C7.9325,18.3333333 4.16666667,14.595 4.16666667,10 C4.16666667,5.405 7.9325,1.66666667 12.56,1.66666667 C17.2,1.66666667 20.8333333,5.3275 20.8333333,10 C20.8333333,14.6725 17.2,18.3333333 12.56,18.3333333 Z M37.56,18.3333333 C32.9325,18.3333333 29.1666667,14.595 29.1666667,10 C29.1666667,5.405 32.9325,1.66666667 37.56,1.66666667 C42.2,1.66666667 45.8333333,5.3275 45.8333333,10 C45.8333333,14.6725 42.2,18.3333333 37.56,18.3333333 Z" id="Shape"></path>
                    </g>
                </g>
            </g>
        </g>
    </g>
</svg>